<svg xmlns="http://www.w3.org/2000/svg" width="82" height="38" fill="none"><rect width="9.657" height="9.657" x="3.671" y="19" fill="url(#a)" rx="2.5" transform="rotate(-45 3.671 19)"/><rect width="9.657" height="9.657" x="3.671" y="19" fill="url(#b)" rx="2.5" transform="rotate(-45 3.671 19)"/><rect width="9.657" height="9.657" x="3.671" y="19" stroke="#153AA1" rx="2.5" transform="rotate(-45 3.671 19)"/><path fill="#fff" d="M34.085 12.91V26h-2.11l-6.168-8.917h-.109V26h-2.371V12.91h2.122l6.162 8.922h.115V12.91h2.359Zm6.764 13.282c-.959 0-1.79-.211-2.493-.633a4.297 4.297 0 0 1-1.636-1.77c-.384-.76-.575-1.646-.575-2.66 0-1.014.191-1.902.575-2.665a4.288 4.288 0 0 1 1.636-1.777c.703-.422 1.534-.633 2.493-.633.959 0 1.79.21 2.493.633a4.246 4.246 0 0 1 1.63 1.777c.388.763.582 1.651.582 2.665s-.194 1.9-.582 2.66a4.254 4.254 0 0 1-1.63 1.77c-.703.422-1.534.633-2.493.633Zm.013-1.854c.52 0 .954-.143 1.304-.428.35-.29.61-.678.78-1.164a4.77 4.77 0 0 0 .262-1.623c0-.601-.088-1.144-.262-1.63-.17-.49-.43-.88-.78-1.17-.35-.29-.784-.434-1.304-.434-.533 0-.976.144-1.33.434-.35.29-.611.68-.786 1.17a4.901 4.901 0 0 0-.256 1.63c0 .596.086 1.138.256 1.623.175.486.437.874.786 1.164.354.285.797.428 1.33.428ZM51.8 26.192c-.98 0-1.822-.215-2.525-.646a4.311 4.311 0 0 1-1.617-1.783c-.375-.763-.562-1.64-.562-2.634 0-.997.191-1.877.575-2.64a4.294 4.294 0 0 1 1.623-1.79c.704-.43 1.535-.645 2.493-.645.797 0 1.503.147 2.116.441.618.29 1.11.701 1.477 1.234.366.528.575 1.146.626 1.853h-2.212a2.114 2.114 0 0 0-.639-1.182c-.332-.32-.777-.48-1.336-.48a2.09 2.09 0 0 0-1.246.384c-.358.251-.637.614-.837 1.087-.196.473-.294 1.04-.294 1.7 0 .669.098 1.244.294 1.726.196.477.47.846.824 1.106a2.11 2.11 0 0 0 1.26.383 2.1 2.1 0 0 0 .913-.192c.273-.132.501-.321.684-.569.184-.247.31-.547.377-.9h2.212a3.856 3.856 0 0 1-.614 1.846 3.63 3.63 0 0 1-1.444 1.253c-.61.299-1.325.448-2.148.448Zm11.009-10.01v1.79h-5.644v-1.79h5.644Zm-4.25-2.352h2.313v9.217c0 .311.047.55.14.716a.76.76 0 0 0 .384.332c.158.06.333.09.524.09.145 0 .277-.011.397-.032.123-.022.217-.04.281-.058l.39 1.81c-.124.042-.3.089-.53.14a4.336 4.336 0 0 1-.832.09c-.58.016-1.101-.071-1.566-.263a2.436 2.436 0 0 1-1.105-.907c-.269-.41-.401-.921-.397-1.535v-9.6ZM64.743 26v-9.818h2.314V26h-2.314Zm1.163-11.212a1.35 1.35 0 0 1-.946-.364 1.174 1.174 0 0 1-.396-.888c0-.35.132-.646.396-.889.265-.247.58-.37.946-.37.371 0 .687.123.947.37.264.243.396.54.396.889 0 .345-.132.64-.397.888-.26.243-.575.364-.946.364Zm11.29 3.989-2.109.23a1.694 1.694 0 0 0-.313-.6 1.557 1.557 0 0 0-.588-.455c-.247-.115-.55-.172-.908-.172-.481 0-.886.104-1.214.313-.324.209-.484.48-.48.812a.85.85 0 0 0 .313.697c.218.178.576.326 1.074.44l1.675.359c.929.2 1.62.517 2.071.952.456.435.686 1.003.69 1.707a2.669 2.669 0 0 1-.543 1.636c-.354.469-.846.835-1.477 1.1-.63.264-1.355.396-2.173.396-1.202 0-2.169-.252-2.902-.755-.733-.507-1.17-1.212-1.31-2.115l2.256-.218c.103.444.32.778.652 1.004.333.226.765.339 1.298.339.55 0 .99-.113 1.323-.339.337-.226.505-.505.505-.837a.872.872 0 0 0-.326-.697c-.213-.183-.546-.324-.997-.422l-1.675-.352c-.942-.196-1.639-.526-2.09-.99-.452-.47-.676-1.061-.671-1.777-.005-.605.16-1.13.492-1.573.337-.447.803-.792 1.4-1.035.6-.247 1.293-.371 2.077-.371 1.15 0 2.056.245 2.717.735.665.49 1.076 1.153 1.233 1.988Z"/><defs><linearGradient id="a" x1="8.293" x2="8.293" y1="19" y2="29.657" gradientUnits="userSpaceOnUse"><stop stop-color="#050505" stop-opacity=".7"/><stop offset="1" stop-color="#121212"/></linearGradient><linearGradient id="b" x1="8.293" x2="8.293" y1="19" y2="29.657" gradientUnits="userSpaceOnUse"><stop stop-color="#153AA1"/><stop offset="1" stop-color="#00185E"/></linearGradient></defs></svg>